<svg width="512" height="512" viewBox="0 0 512 512" fill="none" xmlns="http://www.w3.org/2000/svg">
<rect id="square" x="12.5" y="12.5" width="487" height="487" fill="#091426" stroke="#52E5DB" stroke-width="25"/>
<path d="M181.64 196V165.04H239.48V340H204.92V196H181.64ZM297.393 243.28C291.313 243.28 286.273 241.44 282.273 237.76C278.433 233.92 276.513 229.2 276.513 223.6C276.513 218 278.433 213.36 282.273 209.68C286.273 205.84 291.313 203.92 297.393 203.92C303.313 203.92 308.193 205.84 312.033 209.68C315.873 213.36 317.793 218 317.793 223.6C317.793 229.2 315.873 233.92 312.033 237.76C308.193 241.44 303.313 243.28 297.393 243.28ZM319.473 304.72L291.393 372.16H269.793L285.393 304.72H319.473Z" fill="#52E5DB"/>
</svg>
